<?xml version="1.0" standalone="no"?><!DOCTYPE svg PUBLIC "-//W3C//DTD SVG 1.1//EN" "http://www.w3.org/Graphics/SVG/1.1/DTD/svg11.dtd"><svg t="1709326046106" class="icon" viewBox="0 0 1032 1024" version="1.1" xmlns="http://www.w3.org/2000/svg" p-id="1255" xmlns:xlink="http://www.w3.org/1999/xlink" width="129" height="128"><path d="M5.205128 955.209763m34.395118 0l958.087488 0q34.395118 0 34.395119 34.395119l0 0q0 34.395118-34.395119 34.395118l-958.087488 0q-34.395118 0-34.395118-34.395118l0 0q0-34.395118 34.395118-34.395119Z" p-id="1256"></path><path d="M967.523216 894.972446H62.140514c-34.269003 0-62.140514-27.103353-62.140514-60.420758V589.922141c0-33.317405 27.871511-60.420758 62.140514-60.420758h278.485809l17.197559-86.068052a252.75826 252.75826 0 0 1-73.766064-82.273123 236.71867 236.71867 0 0 1-29.751778-114.535744c0-66.290858 27.378514-128.488697 77.090926-175.151408C380.50173 25.383597 445.657549 0 514.837597 0c68.709982 0 133.464524 24.924996 182.294128 70.188972 49.494575 45.860158 77.251436 107.312769 78.168639 173.122096 1.089179 78.48966-37.490679 152.886301-103.483446 200.122263l17.197559 86.068052h278.508739c34.257538 0 62.129049 27.103353 62.129048 60.420758v244.675407c0 33.248614-27.825651 60.374898-62.129048 60.374898zM68.790237 826.182209h892.071791V598.29162H683.843744c-29.694452 0-55.341746-20.568281-60.99401-48.909859l-19.662543-98.599339a59.686995 59.686995 0 0 1 25.223087-60.913755c49.735341-33.993842 78.948262-88.429849 78.157174-145.606001-1.352875-96.764933-87.363601-175.483894-191.74132-175.483894-105.742059 0.011465-191.729855 79.78521-191.729855 177.845692 0 56.281879 29.235851 109.846543 78.225965 143.312993a59.618205 59.618205 0 0 1 25.165761 60.890825l-19.662543 98.599339c-5.652264 28.341578-31.311023 48.909858-60.99401 48.909859H68.790237z" p-id="1257"></path></svg>