<?xml version="1.0" standalone="no"?><!DOCTYPE svg PUBLIC "-//W3C//DTD SVG 1.1//EN" "http://www.w3.org/Graphics/SVG/1.1/DTD/svg11.dtd"><svg t="1709325922995" class="icon" viewBox="0 0 1024 1024" version="1.1" xmlns="http://www.w3.org/2000/svg" p-id="1112" xmlns:xlink="http://www.w3.org/1999/xlink" width="128" height="128"><path d="M770.838418 638.472192a497.782383 497.782383 0 0 0-139.763691-66.177376 312.501736 312.501736 0 0 0 71.436808-52.274182c58.93994-57.533614 91.468385-134.035484 91.468385-215.396612s-32.562745-157.874432-91.456951-215.385179-137.305479-89.181675-220.667479-89.181675-161.773272 31.625194-220.667478 89.181675-91.399783 134.035484-91.399783 215.408046 32.459843 157.862998 91.399783 215.396612a312.730407 312.730407 0 0 0 71.539711 52.33135q-18.933956 5.602439-37.44487 12.668371a485.502752 485.502752 0 0 0-152.96944 93.229151c-44.430768 40.143187-79.348824 86.975-103.782316 139.169147A401.317538 401.317538 0 0 0 0.251578 988.750371c0 19.437032 16.167037 35.249629 36.107145 35.249629s36.107145-15.778296 36.107145-35.249629c0-202.522437 183.657083-367.302732 409.389622-367.302732 90.32503 0 175.916571 25.862686 247.593484 74.798272a36.678822 36.678822 0 0 0 50.307612-8.689497 34.723686 34.723686 0 0 0-8.918168-49.084222z m-528.847333-333.859604c0-129.107625 107.601121-234.136198 239.864405-234.136198s239.864405 105.028573 239.864406 234.136198-107.601121 234.147631-239.864406 234.147631-239.864405-105.040006-239.864405-234.136197zM989.447858 830.418597h-90.67947v-90.679469a34.300644 34.300644 0 0 0-68.601289 0v90.679469h-90.668036a34.403546 34.403546 0 0 0-34.300644 34.300645 34.403546 34.403546 0 0 0 34.300644 34.300644h90.668036v90.67947a34.300644 34.300644 0 0 0 68.601289 0V899.019886h90.67947a34.403546 34.403546 0 0 0 34.300644-34.300644 34.403546 34.403546 0 0 0-34.300644-34.300645z" p-id="1113"></path></svg>